<svg xmlns="http://www.w3.org/2000/svg" shape-rendering="geometricPrecision" viewBox="0 0 836 768"><path fill="none" d="M837 284v485H1V1h836zM576 517v-13.9q-.2-3.5.7-7.3 2.2-.8 4.3-1.8c2.4-1.5 4.7-3.3 7.9-5q2.6-.4 5-1.4a2409 2409 0 0 0 40-20.6c3.6-2 6.7-4.7 10.7-7.3 8.2-3.6 16.4-6.9 24.3-10.7 7.7-3.8 15-8.2 22.6-12.1 8.8-4.5 17.7-8.6 26.3-13.2 3.3-1.8 6.2-4.4 10-6.7 1-.1 2.1.1 3-.3l23.6-12.5c4.3-2.2 9-3.9 13.1-6.5 4.3-2.6 10-4 11.2-10.8l1.3-3.7v-100c-.2-4-.4-8 3.8-10.7.9-.5 1-2.5 1.2-4l1.7-11.9c.4-2.7 1.4-5.4 1.2-8-.8-10-2-19.8-2.9-30.3v-2q-1-1.5-2-4.2c-1.3-1.7-2.3-4-4-5-3-1.9-6.3-3-9.5-4.3l-22-9.2-18.4-8c-5.9-2.5-12-4.3-17.8-7-5.2-2.5-9.8-6.2-15-8.5-10.7-4.7-21.6-8.8-32.5-13.8q-7.6-3.8-15.5-7.3c-4.3-1.9-8.8-3.4-13.5-5.8-5-1.8-9.9-3.5-15.1-6-6.3-3-12.5-6.4-18.9-9.2-8.8-3.7-18-6.7-26.7-10.6-10.7-4.6-21-9.9-31.7-14.6-8-3.5-16.3-6.5-24.6-10.6q-6.3-2.4-13-6-2.2-.4-5.5-1.4l-7-3.1C485.7 78.5 479 75 472 72c-9.2-3.9-18.5-7.4-28.1-11.7-5.9-2.5-11.5-5.7-17.6-7.2-9.5-2.3-18 2.7-26.5 6-11.6 4.6-22.7 10.3-34 15.5q-20.1 9.2-40.2 18c-13.1 5.8-26.4 11.1-39.5 16.8a2500 2500 0 0 0-57.6 25.5l-30.3 14q-5.3 2.6-11 5l-18 7.4-25.8 11.6-24.4 10.6L89 197c-7.4 3.3-15.2 6-22.2 10-10.5 5.7-10.4 14.9 0 21.2 3.6 2.3 7.6 3.8 11.5 5.6l32 15.3 26.8 12.5c5.6 2.6 11.3 5 17.1 8.1l1.9.5.2.6q1.8 1 3.7 2.3c2.7 2.1 6.9 3.9 7.8 6.6 1.5 4.9 4.6 8.3 7.4 12.2 4.5 6.5 8 13.6 12 20.4 1.8 3.3 3.2 7 5.6 9.8 2.8 3.2 6.4 5.6 10 8.6-2.2 2.8-4 5-6.4 7.6q-.5 1.3-2 3c-1.8 7-2.4 14 .7 21.8 0 18.3 0 36.6-.8 55.3q-.7 14.4-1.1 28.8c0 1.7 1.2 3.4 1.9 5.9 0 4.3 3.5 9.4 7.4 11q11.3 4.6 22.3 9.4 14.6 6.5 29.5 14.4c4.7 3 9.7 5.8 13.8 9.4 2 1.8 2.6 5.3 4.3 9 4.7 1 4.2 7.6 6.6 11.9 1.5 2.7 4.1 6-.8 8.9q-6.4 2.7-6.2 10v107.3c0 5.8 3.2 10 8.4 10.8a812 812 0 0 0 23.4 10.9q3.7 1.9 7.9 4.5c1.8 1.5 3.5 3.3 5.5 4.4q15.4 8.3 31 16.1 23.2 11.5 47.5 23.1 2.6 1.4 5.6 3.6 1.5 0 2.8 1 1 1.2 2 1.8c8.2 4.3 16.5 8.2 24.6 12.6 6 3.4 12.3 5 19 2.8 4-1.4 7.8-3.7 11.4-6 2-1.3 6-.8 5-5l.4.1h1.2l37-19c2.4-1.2 4.4-3.2 7.2-5.3q4.9-2.4 11-4.7 8-4.5 17.2-9a162 162 0 0 0 12.8-7.1c6 .3 10.8-3 15.7-5.8q5.4-3 5.6-9.4 0-1.3 1.7-3l.1-75.3c0-1.1-1.3-2.2-2-4.3q-.2-10.4.8-21.3l1.4-6.6-.1-5z"/><path fill="none" d="M784.9 219q1.7 14.8 3 29.5c.2 2.7-.8 5.4-1.2 8.1q-.7 6-1.7 12c-.2 1.4-.3 3.4-1.2 4-4.2 2.6-4 6.5-4.2 11-6.8-9.4-10.7-10.5-21.8-5.7q-11.1 4.9-22 10-4 2.3-7.7 5.5 0 .3-.5.5l-1.9 1.2-2.5.2q-1.3.7-2.5 1.8l-7 3q-2 .9-4 2.2-5.5 2.6-10.8 4.5-1 .6-2.3 1.8a28 28 0 0 1-5.4 1.8q-1.4.6-2.4 1.7-.7.3-1.6.2-1.4.8-2.4 1.8-.8.3-1.6.2-1.3.7-2.5 1.7-1 1-2.2 1.7l-1.8.4-2.4 1.5-.7.1-4 2h-1.9a606 606 0 0 0-25.7 11.8c-2.9 1.4-5.4 3.3-8.4 5.1q-1 .5-2 .5l-2.8-.2-.8-.8q-4.6-2.7-9.2-4.7L550.6 303q-25.3-11.3-50.5-22.8c-2-1-4.3-1.3-6.8-2q-.9 0-1.3-.6a111 111 0 0 0-12-5.5q-8.8-4.8-17.5-9-4.4-2-9.3-3.6-.7 0-1.4-.6-2 0-4.1.4h-1.6q-1.9 1.2-3.2 2.5l-.5.2c-3.5 2.2-4.4 5.3-4.4 9v63.3l.1 103.2v154.9c0 3.8-.1 5.8-5 3.1q-13-6.7-26.3-12.5c-2.6-1.2-5.5-1.8-8.4-2.7q-.4 0-.5-.5-9.8-5.4-19.6-10-5.8-2.5-12-4.4-.3 0-.4-.6a817 817 0 0 0-30-14.7q-5-2-10.7-3.8-.7-.1-1.2-.8a900 900 0 0 0-27.7-13.7q-1.3-.4-3-.4-.9-.2-1.3-.9-3-1.6-6.3-2.8-2.2 0-4-.2l-2.9-.5c4.2-3 1.6-6.2 0-9-2.3-4.2-1.8-10.7-6.5-11.8-1.7-3.7-2.2-7.2-4.3-9-4.1-3.6-9.1-6.3-13.7-10q3.3.5 6.4 2l17.6 6.9q3.6 1 6.7 2.2.5.5 1.1.7.4.2.7.6l19.6 9q1 .1 1.8.6 3.5 2 7.2 3.7l2.6.4q.5.5 1.2.8s.5.2.6.5q13.7 6.5 27.3 12.7 1.1.3 2 .8 3 1.7 6.2 3 .8 0 1.5.5 11.9 6 23.8 11.5 6 2.8 12.8 5.2c1.5 0 2.5 0 3.8.2q1.1-.5 2.4-1.4c1.3-.8 2.2-1.5 3.6-2.2 1.2-1.9 2.7-3.7 2.7-5.6q.2-52 0-103.9c0-6-2.3-11.6-8.2-14.3q-29.5-13.3-58.9-26.3-3.7-1.6-8.1-3-1-.1-1.7-.7-10.3-5.9-20.8-10.8-9.4-4-19.5-7.4-1-.4-1.8-1.2-2.5-1.5-5.5-2.5-.9-.2-1.4-.7a8 8 0 0 0-2.6-1.3q-.9-.1-1.4-.7a8 8 0 0 0-2.6-1.3q-1 0-1.4-.7-8.5-4.2-16.9-8-22.3-10.9-44.7-21.5c-3.3-1.6-7-2.4-9.7 2q-.7.7-1.8 1.1l-2-.1 5.7-7.4c-3.5-3-7.1-5.4-9.9-8.6-2.4-2.8-3.8-6.5-5.7-9.8-3.9-6.8-7.4-14-12-20.4-2.7-4-5.8-7.3-7.3-12.2-1-2.7-5-4.5-7.8-6.6q-1.9-1.1-3.5-2.6 6 1.4 11.3 3.8l39 18.3 69.2 32.8 94.7 45q5.8 2.4 12 4.5.3 0 .5.6 4.1 2.1 8.7 3.9l2.6.7h4c6.5-2.4 8.4-5 8.3-11.6L406 312q-.2-45 0-90.3c.1-4.2 2-8.4 3.4-12.7 6.1-4.5 12-5.7 18.7-1.8 2.4 1.4 5.2 2 8 3q.4-.1.8.4 14 6.5 28.2 12.8l.8.5q.8 1.1 1.7 1.6l49 21.6 29.8 12.9 2.6.2 1 .7.8.6q14.1 6.5 28.3 12.7.3 0 .7.3 23.5 11.3 46.9 21.5a13 13 0 0 0 15-2.7l1.6-.6 2.2-1.5.9-.3q10.5-4.4 20.2-9l20.6-11 2.6-.2q1.3-.7 2.5-1.8 2.4-1.1 5-2 3.3-.7 6-1.8l64-31.4c4.5-2.3 8.5-5.7 12.8-8.6h.5z"/><path fill="#313e6c" d="m324 545.9 1.3.7q1 .8 1.1 1.8.2 3 .6 5.4c.8 6 1 12.3 2.6 18.2 2.5 9.2 6.4 18 8.8 27.2 1.9 7 4.3 14.9-4.6 19.7-.8.4-1 1.7-1.6 2.6-1.9 3.4-3.2 7.5-6 10.1-6 5.7-12.7 10.6-19.1 15.8-3.2 2.6-6.6 4.3-11 2.9-1.4-.4-3.2.3-4.7.9q-3.3 1.4-7 3.3 6.8 3.1 13.7 6.8c1.9 1 3.3 3 4.9 4.6q-11.2-5.3-23.1-11.3a20 20 0 0 1-5.4-14.5q.1-48.9 0-97.8c-.1-6.7 1-11.7 7.4-14.6q1.5 0 4 .3l6.1 2.9 1.4.8z"/><path fill="#1b244a" d="m522 696-11 4.9-29 13.6 5.8-13.3q.7-1.7 1.8-2.8c5-3.7 7.1-10.1 5-15.9-.2-.5-1.2-.8-2.1-1.4-.8 3-.2 7.1-4.3 5.6l-1.6-29.6c-3.8-.8-8.2-1-8.3-1.8-.7-5.1-.5-10.3-.3-15.5 0-.6 1.4-1.5 2.3-1.6 2.7-.2 4.8-.7 4.7-4.3 0-3.4-.9-6-4.3-7.6a30 30 0 0 1-7-4.6c-.5-.5.2-2.4.7-3.7q4.5 2 8.6 4.3 1 1 2.3 1.7.5-.1.8.4 1.9 1 4.2 1.6 1.2 0 1.7.3 1 1 2.4 1.7 5.1 1.4 9.6 3.4l16.2 8 20 9.9q6.8 3.3 13.5 6c4.8 2 6 .9 6.3-4.3q.8-18.1 2-36.2c.6-7.2 5.8-14.2 1-21.7v-.5c-.3-22-1-43.9-.8-65.8 0-4.8 2.2-9.7 4.3-14.1.8-1.8 4.1-2.5 6.4-3.3q0 2.6-.3 4.8 0 1 .5 2 .3 1 .2 2.1l.1 7.2v134.8c-1.4 7.7-5 13-12.4 15.6-3 1-5.7 3.1-8.6 4.7q-6 3.3-13 6.2-6 1.7-10.7 4.2c-2.4 1.3-4.5 3.3-6.7 5m-30-22.8c2.7-1.5 2.8-2.3-.5-5.6 0 2.1 0 3.6.5 5.6"/><path fill="#2c3864" d="M303.4 666c-2-1.6-3.4-3.6-5.3-4.7q-7-3.7-13.7-6.8 3.7-2 7-3.3c1.5-.6 3.3-1.3 4.7-1 4.4 1.5 7.8-.2 11-2.8 6.4-5.2 13.2-10.1 19.2-15.8 2.7-2.6 4-6.7 6-10.1.4-.9.7-2.2 1.5-2.6 9-4.8 6.5-12.6 4.6-19.7-2.4-9.2-6.3-18-8.8-27.2-1.5-5.9-1.8-12.1-2.6-18.2a19 19 0 0 1-.2-5.3q2.2.1 3.7 1l35.4 15.7.6.5q8 4 15.5 8.2l4 6.4c-2.6 1.3-5.2 2-7.3 3.5-1.5 1-3.4 2.8-3.5 4.3q-.3 6.7.5 13.4c.8 8 5 16.2-1.3 24-.5.6-.1 1.9-.4 2.8-1.5 4.1-2.4 8.7-4.9 12.1-5 6.9-8.4 14.2-9 22.7-.7 8.3-9 19.3-16.7 21.6v-.3q-.1-1.4-.7-2.2-.8.9-2 1.8l-5.6-2.8-24-11.2z"/><path fill="#1e274c" d="M474 618c-.1 1.3-.8 3.2-.2 3.7q3 2.8 6.9 4.6c3.4 1.6 4.3 4.2 4.3 7.6.1 3.6-2 4-4.7 4.3-.9 0-2.3 1-2.3 1.6a89 89 0 0 0 .3 15.5c0 .8 4.5 1 8.3 1.8l1.6 29.6c4.1 1.5 3.5-2.7 4.3-5.6q1.7.8 2 1.4c2.2 5.8 0 12.2-5 15.9q-1 1.1-1.7 2.8l-5.9 13.3 28.9-13.4c-1.8 1.7-3.8 3.7-6.2 5q-18.4 9.5-37.5 18.9h-1.2l-.1.2q-6.6 3.7-13 7c-5.7 3.3-11.4 4.3-17 .1l3.5-2c-.5-8.1-1.3-16.2-1.1-24.3.2-10.6 1.1-21.1 1.8-31.7l.4-5c.1-9.7.9-19.5.3-29.3-.8-13-1.6-26 1.6-38.8l6.7 3.7q10.5 4.5 21 9.5 2 2 4 3.6"/><path fill="#4bc4a8" d="M382.4 374.7c-4-1.5-8-2.7-11.8-4.5q-47.4-22.4-94.7-45l-69.2-32.7-39-18.3q-5.3-2.3-11.4-4.1-.4 0-.5-.3l-1.9-.8-17-7.5-26.7-12.5-32-15.3c-3.9-1.8-8-3.3-11.6-5.6-10.3-6.3-10.4-15.5.1-21.3 7-3.9 14.8-6.6 22.2-9.9l30-13.4 24.5-10.6 25.9-11.6 18-7.4 10.9-5 30.3-14a2509 2509 0 0 1 57.6-25.5c13.1-5.7 26.4-11 39.5-16.7q20.1-8.9 40.2-18.1c11.3-5.2 22.4-10.8 34-15.4 8.4-3.4 17-8.4 26.5-6 6.1 1.4 11.7 4.6 17.3 7.4q-2.1 0-4-.7L426 55.4l-9.2.3q-.8-.4-1.6-.5-1.9.9-3.3 2h-.9c-2.6 1-4.8 2.3-7.4 3.6L369.5 76l-62.8 27.4-22 10-98.7 43L92.3 198l-11.6 5.4-10.1 4.4c-4.3 1.5-7.5 3.6-7.8 8.4-.3 4.3 1 8.2 5 10q18.2 8.2 36.9 16.4 2 1.2 3.7 2l106.7 50 33.2 15.7 67 31.8q14.8 6.5 29.2 13.4 1.3.9 2.8 1.6 7.2 3.1 13.8 6.3z"/><path fill="#3dbaac" d="M196.6 338q1-.1 2.2.5c-.4 2.8-1.7 5.1-1.7 7.5q-.4 51.6.1 103.2c0 3.9 2.5 9.5 5.6 11.3 7.8 4.6 16.6 7.4 25.2 11.2l23.1 10.8 14.2 6.7L278 496l-17.3-6.9q-3-1.2-6.6-2.2-14.9-6.7-29.4-13.5-11-4.9-22.3-9.3c-4-1.7-7.4-6.8-7.4-12V340.8zm531.5-44.9c2.6-1.8 5-4 7.7-5.3q10.9-5.2 22-10c11.1-4.8 15-3.7 21.7 6 .4.6.5 1 .2 2.1a8 8 0 0 0-.7 2.6v86.7c0 1.2.6 2.4.9 3.7q0 2-.3 4.6-1.1 2.1-1.6 3.5c-.4 6.5-6.2 8-10.5 10.6-4 2.6-8.8 4.3-13.1 6.5l-23.7 12.5c-.8.4-2 .2-3.3.3q-.5 0-.3-.3c12.8-7.2 25.2-14.7 38.2-20.7 8.6-4 11.8-9.7 11.8-18.6v-75.4q0-7.7-.4-15.4-.1-6.7-6.8-9.3-3.3 0-6.4.2l-21.9 10.3zm56.9-74.5a31 31 0 0 1-4.4 6c3.4-9 1.8-12.9-7-16.7l-25-11-34.9-15.3q-4.7-1.5-9.2-3.4-3.7-2-7.6-3.6l-.4-.2q-1.3-1-2.7-1.7l-1.3-.3-2.8-1.7-7.9-3.4q-10.5-5.1-20-10l2-.4c10.9 4.3 21.8 8.4 32.5 13.1 5.2 2.3 9.8 6 15 8.5 5.7 2.7 11.9 4.5 17.8 7l18.4 8 22 9.2c3.2 1.3 6.6 2.4 9.5 4.3 1.7 1 2.7 3.3 4 5.8q1 2.6 1.9 4z"/><path fill="#4a5580" d="M281.7 527.5c-6.1 3-7.3 8.1-7.3 14.8q.4 48.9 0 97.8a20 20 0 0 0 5.1 14.3c-4.4 0-7.5-4.3-7.5-10.2v-50.9l-.1-56.3q-.3-7.3 6.6-10 1.6 0 3.2.5"/><path fill="#3dbaac" d="M517.9 93c8.2 3.3 16.5 6.3 24.5 9.8 10.7 4.7 21 10 31.7 14.6 8.8 3.9 17.9 6.9 26.7 10.6q9.5 4.2 19.2 9.8.8 1.6.6 2.2-5.7-1.6-11-3.8l-50.7-22.7-12.4-5.3-12.3-5.6q-9.9-4.6-19.2-9.4zM727 417c-3 2.3-5.9 4.9-9.2 6.7-8.6 4.6-17.5 8.7-26.2 13.2-7.6 3.9-15 8.3-22.7 12-8 4-16.1 7.2-24.6 11q-.4.1-.2-.2a258 258 0 0 1 12.6-7.7l17-9.4q8.5-4 16.4-8l16.9-9.1z"/><path fill="#4a5580" d="m311.3 670.3 23.8 10.9 5.8 3 2.4.5v.3q5.3 3.1 10.7 6l16 8.7 4.6 2 2.6 1.3q.3 0 .7.4l3.4 1.7q7.1 3.5 13.8 7.2l-.2 1.6q-23.5-11.3-46.8-22.9-15.6-7.9-31-16-2.8-2-5.8-4.7"/><path fill="none" d="m573.5 594 .2-.9q.2-.7-.2-.9l.2-1q.2-.7-.2-1-.1-.6.2-1.9.2-2-.2-3.4v-1.4l.5-.5c.6 1.2 2 2.3 2 3.4q0 37.7-.6 75.2-1.3-.8-1.9-1.6-.1-31.4.2-63.5.2-1.7-.2-2.6"/><path fill="#3dbaac" d="m426.4 55.4 13.3 4.5 4 1Q458.4 66.4 472 72q10.4 4.7 20.4 9.7 3.4 1.4 7.3 3.5.5 1.5 0 2.3l-20.3-9c-8.2-3.4-16.6-6.5-25-10.1q-8.3-3.7-16.7-7.2-5.2-1.8-10.2-3.9z"/><path fill="#4a5580" d="M435.6 732.7c5.8 3.8 11.5 2.8 17.3-.5l13-7c1 4-3 3.4-4.9 4.6a56 56 0 0 1-11.5 6c-6.6 2.4-12.8.7-19-2.7-8-4.4-16.3-8.3-24.5-12.6a6 6 0 0 1-2-2c0-.5 0-.4.3-.7q16 7.3 31.3 14.9"/><path fill="#3dbaac" d="M644 460c-3.4 2.3-6.5 5-10 7q-20 10.5-40.1 20.6-2.3 1-5.5 1.4-.5 0-.4-.3 5.5-3.7 11.1-6.6l34.8-18.8q5.3-1.6 10.1-3.3"/><path fill="none" d="M780 378.5c-.4-.8-1-2-1-3.2v-86.7q0-.9.6-2.3.4 45.5.3 92.2"/><path fill="#4a5580" d="M573.3 660.3q1 .3 1.7 1.5c-.3 1.1-1 2-1 3q0 6.3-5.5 9.3c-5 2.8-9.7 6-15.9 6.1 2.7-1.2 5.4-3.2 8.4-4.3 7.4-2.5 11-7.9 12.3-15.6"/><path fill="#4bc4a8" d="M663.9 156.6q-.7.6-2.5.7c-2.3-.6-3.8-1.3-5.5-2.4q-3.8-2.2-7.4-3.9l-13.5-7 .1-.1q6.8 2.4 13.2 5a198 198 0 0 1 15.6 7.7"/><path fill="none" d="M194.6 418q.5 16.3.4 33.7c-.7-1.2-2-2.9-2-4.6q.4-14.4 1.6-29"/><path fill="#4a5580" d="m572.8 514 .2-5v-9.4q0-2.2.4-3.6h1q.7-.1.8.5.2 4 .7 7.5l-.2 4.9-2.3 5.3z"/><path fill="#313e6c" d="M522.4 696c1.8-1.7 3.9-3.7 6.3-5a62 62 0 0 1 10.3-4q-8 4.7-16.6 9.1"/><path fill="#3dbaac" d="M575.2 496.1q-.1.1-.7-.4-.2-1.4.6-2.2l13-4.5q-3.5 2.7-7.1 5-2 1-4.8 2z"/><path fill="none" d="M194.6 341q.5 9.9.4 20.6c-3-6.3-2.5-13.3-.4-20.6m379 193.9q-.3-4.4.1-9.5l2.2-4.4-.2 18.3q-1.4-2-2.2-4.4"/><path fill="#4a5580" d="M573.3 535.3q1 1.7 2.3 4.5.6 2.7 0 5.8-1.3.5-2 .5-.3-5-.3-10.8"/><path fill="#4bc4a8" d="m621 140-.9-1.8a171 171 0 0 1 14.9 5.3q.2.6-.4.5-6.4-1.8-12.4-3.7-.9 0-1.2-.3"/><path fill="#4a5580" d="M574 582.6q-.1.6-.4.6-.4-10.6-.2-22 .5-.4.5-.2z"/><path fill="#4bc4a8" d="M517.8 92.6q-1 .5-3 .6-.7.1-1-.4-1.7-1-3.5-1.4h-.6q-.5-.2-.8-.7l-4-3.7.2-.1q6.3 2.6 12.7 5.7"/><path fill="#4a5580" d="M573.5 558q-.2-3.5.1-7.7 1.5-.5 2.3-.3.1 2-.2 4.8z"/><path fill="#313e6c" d="M395.3 714q-.4-.7.2-1.7a30 30 0 0 1 7.2 4.1l-1.6.6z"/><path fill="#4a5580" d="M576 520.7q-1 2.4-2.2 4.3a19 19 0 0 1-.2-6.7q1.5-.5 2.3-.3z"/><path fill="none" d="M576 517.5q-1 .5-2.2.4-.5-.6-.5-1.6l.5-.5q.4 0 .5-.3l-.8-.6v-.8l2.1-4.8q.5 3.6.3 8.2m0 32q-.9.5-2 .4a9 9 0 0 1-.5-3.4q1-.6 2.2-.5.5 1.4.3 3.6m-2.5 8.8 2.2-3.2a21 21 0 0 1-1.3 5.7h-.7q-.2-1-.2-2.5"/><path fill="#4bc4a8" d="M500 87.5v-2q2.3 0 5 1 .2.6-.3.5l-3 .8z"/><path fill="none" d="M575.2 496.5q.1-.5.6-.4.3 3.3.1 7.4-.5-2.8-.7-7m209.7-279.9q-.9-1.1-1.8-3.4.9 1.3 1.8 3.4M778.4 387q0-1.3 1.1-3 0 1.5-1.1 3"/><path fill="#4a5580" d="M401.2 717.4q.4-.7 1.8-.8 1 .7 1 1.5-1.4-.2-2.8-.7"/><path fill="none" d="M154 269.3q.7 0 1.8.6-.6 0-1.8-.6"/><path fill="#4a5580" d="M466.2 725h.5z"/><path fill="#289eac" d="m620.6 140 1.8.6q3.3 2 5.6 4.3c.7 12.4 1.8 24.3 2 36.2v75.4q-.3 10.9-1 21.2-.3 5.2-2 10.1c-1.3 4.2-.1 5.6 4.4 5.2q3.2.4 5.3 1.3c-3.7.2-7.5 1.1-10.5 0-9.1-3.8-18-8.5-27-12.5-6.4-2.8-13-5-19.6-7.6q-.2.1-.5-.4-10.4-5.5-20.7-10-3.8-1.6-7.8-2.6-.1.1-.6-.5l-1.2-.6q-1 .1-2.5-.5-2-1.7-3.4-2.6-14-6.4-27.9-13.3c.6-.7 1.2-1.6 1.4-1.5 3.8 1.8 5-.6 6.2-3.4q2.8-6.2 5.3-12.6 1.9-5.5 3-11.1c.9-3.8 1.9-7 6.7-7.2 1.1 0 3-1.3 3.2-2.3 2.3-10.4 5.7-20.7 4.2-31.7l-1.9-16c-.6-5.1-1.6-10.1-1.7-15.1 0-4 1.2-8.1 1.6-12.2.5-5.2.5-10.6 1.2-15.8.2-2.1 1.6-4.1 2.4-6.2q6 2 12.2 5.3c.4 2.5.1 4.5 1 6 2.3 4.4.7 7.4-3 9.8-1.2-2.6-3-5.2-5.2-3-3.2 2.7-1.6 6.6-.9 10.9a83 83 0 0 1 6.4-7.3c5.2 9 .5 17.1 0 26.6l-5.2-4.4c-.9 2-2.1 3.6-2.2 5.2q-.5 20.4-.5 40.8c0 .8 1.6 2.3 2 2.2 1.1-.4 2.5-1.4 2.6-2.3q1.3-8.3 2.2-16.6l.6-3.3 1.4.2c0 3.1-.5 6.3.2 9.3.4 2.4 1.7 5.7 3.5 6.4 2.9 1.1 6.4.3 10.2.3.6-7 1.5-14.9 2-22.8.5-6.8.4-13.6 9-16 1.6-.5 3.3-2.8 4-4.7a22 22 0 0 1 16.6-12.3c2.1-.2 4.1-1.5 6.2-2.3q5.1 1.7 11 3.4"/><path fill="#35aeb6" d="m574.7 493.5-.5 2.1c-.2.4-.3.4-1.2.3l-6.2-1q-1.4-.6-2.4-1.4l-2.6-1.6q-.9.1-1.4-.4l-2.7-1.5q-3.3-1-6.4-2.6-4.4-2.4-8.6-4.3l-16.8-6.7-7.5-3.9q-1.4-.9-2.7-1.5l-9.3-3.5q-1.2-.9-2.6-1.6-.9.1-1.4-.4-.6-1.3-.7-2.3-.4-1.6-1.4-2.6l-9-6.3c2.3-2 4.2-2.8 5-4.3 3-6 9-6.1 14.4-6.8 3.5-.5 6-1.2 7.6-4.4l.9-.3 2.6 3.7c1-1 2-1.4 2.5-2.2 1.6-3.2 2.5-6.7 7.5-6.5 1 0 2-4.1 3-6.3l-4.3-1.6c-1.3-.5-2.8-1-3.6-2q-2-3-4-6.6-5.5 2.1-7.9-3.4-.7-1.2-2.1-2c-5-3.3-5-4.4.4-7.3q10-5.3 20-11c9.2-5.2 10.1-9.6 3.6-17.8q-4-4.7-8.3-9.2c-.8-.9-2-1.7-2.1-2.7q-1.6-8.4-2.4-17c-.1-3.2.8-6 5.8-5 3.3.5 8.2 1 9.7-4.4.2-1 1.8-1.8 3-2.1 5.7-1.6 11.8-2 16.2-7.1 2.4-2.8 6-4.4 9.3-6.3 1-.6 2.8-.9 3.8-.5 4 1.8 6 .1 7.6-3.4l25 11.2q11.7 4.9 23.6 9.4l.8.7q.8 1.3.8 2c-3.6 3-6.5 6.4-10.1 8.6a50 50 0 0 1-24.7 7.6c-1.7 0-4 1.4-5 2.8-5.2 8-6.5 8.6-13.6 5 .7 7.2-4.8 9.4-9.7 12.2q-6.6 3.7-12.8 7.8c1.3 2.5 2.8 4 2.9 5.7.7 10.2 7.2 17.6 11.7 26 .5.9 1.7 1.4 2.4 2.3 1.1 1.5 3 3.2 3 4.7-.3 4.5 2.8 10.2-3.8 13q-.6.3-.8 1.2c-2 7.8-4 15.6-1 23.7 2.4 6.2-.6 10.5-7 11.5q-.4 0-1.7 1.6c1.4.8 2.5 2.1 3.5 2 5.6-.1 6.8 3.3 5.9 7.6-1.2 5.4 1.5 7.5 5.8 9"/><path fill="#42b9b8" d="m480.1 272.4 1.7.8 11.7 5.4c4.8 2.6 9.2 4.8 13.5 7.5-2 4.6-5.2 3-8 1.8-8.8-3.3-14 0-14 9.1 0 7.8 1 15.6-3.3 22.8-1 1.7-.5 4.2-.5 6.3 0 4.7.4 9.4.2 14-.7 12.8-1.2 25.6 2.3 38 .7 2.5 2.8 4.8 4.7 6.5 3.5 3.1 4 14.2.2 16.2-4.3 2.3-5.7 5.5-5.7 10.1 0 1.7-.8 4.1-2.1 5q-10.6 7.1-21.6 13.9c-3.9 2.4-4.4 6-1.5 9.4a20 20 0 0 1 2.9 4.8l-2.3.2q-.9.1-1.4-.5a7 7 0 0 0-2.7-1.5q-.7.1-1.2-.4-1-.6-2.4-.7l-10-4q-.6 0-.5-.5V276c0-1.4 1-2.8 1.7-3.6l.1 110.1 1.4.5c1.2-1.4 3.4-2.7 3.4-4.2.4-6.3 1.1-12.9-.2-18.9a90 90 0 0 1-.4-31q1.2-9.1.9-18.2c-.2-6.9-1.4-13.7-2-20.6l-1.1-15.4c-.1-1-1.3-2-2.2-3.3q.1-4 1.3-7.4l12-2.1q2.9 1 5.3 2.2zM442 391.7v10.8c4-3.6 3.7-12.7.3-16.2z"/><path fill="#58cea7" d="M227.8 471.4c-8.4-3.5-17.2-6.3-25-10.9-3-1.8-5.5-7.4-5.6-11.3q-.5-51.6-.1-103.2c0-2.4 1.3-4.7 2-7.5q.7-.9 2-1.5c4 0 7.8-.6 10.7.6a465 465 0 0 1 49.3 24.2q-1.3 1.4-1.6 2.8-.1 1.8.4 3.8l-4.2-.5-2.6-.5q-.5 5.6-1.2 10.7c-.2 1.5-1.3 2.8-1.9 4.3-1 2.3-2.8 4.5-2.9 6.9-.3 11 0 22-.2 32.9a42 42 0 0 1-1.5 12.8c-2.4 8-6 15.5-8.5 23.4-1.4 4-2.6 7.8-6.7 10-1 .6-1.6 2-2.4 3"/><path fill="#2ba3ac" d="M644.1 459.7a61 61 0 0 1-10.6 3.4q-1.4-3.4-1.5-6.5c-.4-7.7-1-15.5-.9-23.3 0-8.7.8-17.4.9-26.1v-58.4c0-2.6-.7-5.2-.8-8q.6-.9.8-1.6l2-.5a374 374 0 0 0 20.8-9.4c4.5-2.2 8.8-5 13.2-7.5h1.6q.4.2.5.7 1.5 0 2.9-.5h.4q2-1 3.6-2.3v-1.5q.5-.4 1.6-.2 1.4 4 2 7.2a56 56 0 0 1-1 30.7c-.8 2.5-1.9 5.3-1.3 7.7 2.3 10.6 1.7 21.2 1.7 31.9 0 2.9 1 6.2-.2 8.6q-4 8.2-2 17c.4 1.9-.7 4.3-1.7 6.2-3.8 7.3-4.2 8.5-2.9 15.4l-16.5 9.3a258 258 0 0 0-12.6 7.7"/><path fill="#4bc4a8" d="m278.3 496-13-6.8c-4.6-2.3-9.3-4.3-14-7a16 16 0 0 1 22.5 1.9c1.3 1.4 3.5 2.1 5.4 2.5.7.2 2.6-1.5 2.6-2.4 0-4.4.6-9.3-1-13.1-3-6.9-3.4-13.9-3.5-21 0-7.8 1-15.7 1.7-23.6q0-1.7.6-3.4l6.7-18.5c1.5-4.2-1-10.8 6.9-11q.4-.2.6-.8c.7-5 5.8-9.2 3.6-14.9l11.2 4.7 20.5 8.8q.6.1 1.7.8 16.5 7.9 32.2 15.8c-1.9 4.2-4.2 7.9-9 7.9-5.6 0-6.8 3.4-8.2 8-1.8 5.8-7.4 10-8 16.7-.1.5-1.6 1-2.5 1.4q-4.7 2-4.3 7c.5 5.7 0 11.2-3.5 15.8-2.3 3-5.5 5.2-8.4 7.6a764 764 0 0 1-19.9 16c-4.1 3-9.4 5-11.5 10.6l-1 .3-.7-.5q-.7-.7-1.2-.7z"/><path fill="#299cad" d="M673.6 442.6c-1.7-6.8-1.3-8 2.5-15.3 1-1.9 2.1-4.3 1.7-6.1q-2-8.9 2-17c1.1-2.5.2-5.8.2-8.7 0-10.7.6-21.3-1.7-31.9-.6-2.4.5-5.2 1.3-7.7a56 56 0 0 0 1-30.7L679 318c.5-1 1-1.4 2.1-2q1.8-1 2.6-1.7l1.5-.2 2.5-1.7 1.5-.3q1.7-1 2.5-1.7l5.3-1.8q1.4-.9 2.1-1.6l11.1-4.8 4-2.2 6.9-3a12 12 0 0 0 2.6-1.7h2.3q1.4-.7 2-1.5l.2-.5q6.5-3 13.5-5.2-.4 5.1-1.5 9.6c-.6 2.6-2 5.3-2 7.9.3 11.5-3.4 22-7.3 32.4-2.7 7.2-6.8 13.7-10.1 20.7-1 2-1 4.4-1.7 6.6q-1 2.3-2.2 4.5c-.5 1-1.4 1.7-1.8 2.6q-2.6 8 2 15.2c2.3 3.9 4.8 8.1 1 12.9-2 2.5-3 5.7-4.6 8.6q-3.3 6.1-6.4 12.4c-.6 1.1-.3 2.6-.3 3.9q-8.2 4.7-16.6 9a422 422 0 0 1-16.5 8.1"/><path fill="#33acad" d="m499.7 87.5 2.2.6q3.4 1.8 6 3.5-.6.9-.5 1.2c4.9 6.2 3.8 8.4-4.5 10.4-1.5.3-3 2.2-4 3.7q-4.2 7.8-8.1 15.9c-1.2 2.4-2.6 5-2.7 7.5q-.4 10.8 0 21.7c.1 8.4-1.3 16.8 3.1 24.8 2 3.6 1.4 7.8-1.6 11.2q-1.2 1.6-1.6 3.5-1.9 7.5-3.6 15.2c-4.4-1.8-4.9-1.6-6.8 2-2.7 5.4-3.5 12.3-11.3 13.3l-.4 1-.1.6q-.2.1-.8-.5l-26.9-13.6q2.1-.9 4.1-1.5c1.3-.6 3-1 3.5-2 2.4-5.4 4.7-10.5 4.6-16.9-.2-6.6 1.9-13.2 2.6-19.9 1.2-10.1 2.6-20.3 3-30.5.3-10.8-.8-21.6-.8-32.4 0-8 .9-16.2.8-24.3 0-4 1.3-8.5-2.4-11.9l1-1.4q12.5 4.8 24.9 9.9z"/><path fill="#2599b1" d="M631 293c-4.1.4-5.3-1-4-5.2q1.7-4.9 2-10.1l1.4-21.2c4 6 4 6 8.2 2.6l3.8 2.9c3.4-4.2 6-8.2 5.7-13.7q-.6-8.9 0-17.7c.5-7.6 1.6-15 2.4-22.6.2-2 .3-4.4-.4-6.2-1.8-4.3 0-10.3 4.5-11.3 3.8-.9 5.2-3 6.3-6.2q1-3 3-5.6c2.6-3.7 4-3.8 6.4.1 2.1 3.3 3.5 2.4 5-.3.7-1.4 1.4-3.9 2.4-4 4.6-.6 4.5-3.6 4.4-6.9q3.5 1.4 7.6 3.6c1.3.9 2 1.2 3 1.6q.3-.4 1.1.3 1.6 1.3 2.8 1.7s.2-.2.3.2q-2 1.2-4.7 1.8c3.8 4.2 8 3.5 12.5 1.9q4.3 1.3 9 3.4c0 2.4 0 4.6-1 5.6-6.3 6.4-13.3 12.1-19.4 18.8a29 29 0 0 0-7 13c-1.2 6.4-1.7 13.5 2.8 19.2 3.1 3.9 3.5 8.3 4.4 12.8a12 12 0 0 1-4.2 12.8c-1.8 1.5-2.9 3.8-4.6 6q-12.6 6.3-24.6 12.6l-14 8q0 .2-1 .2-1.4.1-2.4-.4-.4-4.3-.3-8c-6 1-12 2.1-11.4 10.3m10.3-18.8 2 .3-.2-1.7q-1 .3-1.8 1.4"/><path fill="#44bfac" d="M288 499c1.8-5.7 7-7.5 11.2-10.7q10-7.7 20-16c2.8-2.3 6-4.6 8.3-7.5 3.4-4.6 4-10.1 3.5-15.7q-.4-5.1 4.3-7c.9-.5 2.4-1 2.4-1.5.7-6.7 6.3-10.9 8.1-16.7 1.4-4.6 2.6-8 8.3-8 4.7 0 7-3.7 9.3-7.8q6.1 2.3 11.6 4.8a444 444 0 0 1 22.2 10.9L391 440l-1.7 5.4c-1.1 2.2-2.3 4.7-4 6.4-1.7 1.6-4.2 2.5-6.4 3.6l-9.4 4.6c-1.4.8-3 2.4-3.1 3.7 0 2.2.9 4.4 1.8 6.4.1.3 2.7-.6 4.1-1l5.4-1.3-7.3 16.9q-.4.6-1 1c-5.1 3.7-9.9 7.8-15.3 11a31 31 0 0 1-12.5 4c-4.3.3-10.3 2.6-11.4 6.8-1 3.9-3 3.2-6 2.8s-6.1.4-9.6.5l-6.6-2q-.5.1-1.7-.7-9.4-5-18.3-9.3"/><path fill="#3dbaac" d="M315 511c3-.2 6.3-1 9.3-.6s4.8 1 5.9-2.8c1.1-4.2 7.1-6.5 11.4-6.9 4.3-.3 8.8-1.8 12.5-4 5.4-3 10.2-7.2 15.2-10.9q.8-.4 1.1-1c2.4-5.3 4.6-10.7 7.3-17l-5.4 1.4c-1.4.4-4 1.3-4 1-1-2-2-4.2-2-6.4.1-1.3 1.8-3 3.2-3.7q4.6-2.4 9.4-4.6c2.2-1 4.7-2 6.4-3.6s2.9-4.2 4-6.4c.8-1.7 1-3.6 1.7-5.4a318 318 0 0 1 6.6-16.2q3.1 3.7 5.4 8.2.3.9 1.1 2.4.2 50.1.1 99.7c0 3.5-.9 7.1-1.4 10.7q-1.4 1-3.6 2.2-1.6.6-2.2 1.2-1.4 0-3.7-.3-15.7-7.9-30.7-15-3-1-6-1.7-.4 0-1.4-.6-3.2-1.7-6.2-2.9-.7 0-1.9-.8-7-4.5-13.9-7.7-6.7-2.8-13.5-5l-.7-.5q-.6-.5-1.2-.7-1 .1-2.4-.5-.5-1-.4-1.5"/><path fill="#2295b2" d="M685 270c1.4-1.9 2.5-4.2 4.3-5.7a12 12 0 0 0 4.2-12.8c-1-4.5-1.3-9-4.4-12.8-4.5-5.7-4-12.8-2.8-19.2a29 29 0 0 1 7-13c6-6.7 13-12.4 19.4-18.8 1-1 1-3.2 1.3-5.3q17.3 7 34.6 14.6l25 11c8.8 3.8 10.4 7.8 6.6 16.7q0 .5-.5.4l-2.8 1.7-70.4 34.4c-3.3 1.6-6.4 3.8-9.6 5.7l-5 2q-1.6.9-2.5 1.7h-2.3z"/><path fill="#50c9a7" d="M297 377.8c2.6 5.8-2.5 10-3.2 15q-.1.6-.6.7c-7.8.3-5.4 7-7 11l-6.6 18.6q-.5 1.7-.6 3.4c-.6 7.9-1.8 15.8-1.7 23.7 0 7 .5 14 3.4 20.9 1.7 3.8 1 8.7 1 13.1 0 .9-1.8 2.6-2.5 2.4-1.9-.4-4.1-1.1-5.4-2.5-5.8-6.6-15-7.8-22.8-2.2a428 428 0 0 1-23-10.2c.6-1.3 1.2-2.7 2.2-3.3 4.1-2.2 5.3-6 6.7-10 2.5-7.9 6-15.5 8.5-23.4a42 42 0 0 0 1.5-12.8l.2-33c.1-2.3 1.9-4.5 2.9-6.8.6-1.5 1.7-2.8 2-4.3l1.1-10.7 2.6.5 4.2.5c-.2-1.3-.6-2.6-.4-3.8q.1-1.4 2-2.7c4 1 7.2 2 10.5 3q.4 0 1.5.6l4 2q1.5 1 2.6 1.3.4 0 1.4.7l5.5 2.5 1.8 1.2q4.4 2.6 8.2 4.6"/><path fill="#29345f" d="M353.8 690.8q-5.3-2.6-10.4-5.7c7.7-2.7 16-13.7 16.6-22 .7-8.5 4-15.8 9.1-22.7 2.5-3.4 3.4-8 4.9-12.1.3-.9-.1-2.2.4-2.9 6.2-7.7 2-15.9 1.3-24q-.8-6.6-.5-13.3c0-1.5 2-3.3 3.5-4.3 2.1-1.4 4.7-2.2 7.4-3.5a37 37 0 0 1-3.7-6.4 224 224 0 0 1 16.2 6.7q6.5 3.5 12.6 7.1l2.8 4.2c.6.8 2 1.7 1.8 2.4-.6 4.6-.6 9.6-2.5 13.6-4.2 8.6-4.1 18-6.5 26.8-1.4 5.2-4.4 10.1-7.1 15-.8 1.3-3.4 1.6-4.4 2.9l-20.5 28a11 11 0 0 1-5.4 3.3c-4.4 1.4-9 2-13.4 3.4-1 .3-1.5 2.3-2.2 3.5"/><path fill="#2eadb1" d="M344.4 355.2a928 928 0 0 1-29-13.4c.4-4.3 3.1-2.7 5.2-2.4 2.9.3 6.7 2.3 8.5 1 7.3-4.5 12.7-1.4 17.8 3.2 3 2.7 6 2.4 9.6 1.8 2.3-.4 5 .8 7.4 1.4s5 2 7.3 1.8c6.1-.5 8.3-5.2 9.8-10.4.8-3 .8-6.5 2.5-8.9 2.7-3.8 3.2-7 .7-10.9-3.4-5.3-1.8-9.8 1.4-14.6 4-6.1 8.3-12.7 6.1-20.4-3-11 1.6-19.4 8-27.3 1.8-2.4 2-4.2 1.7-7.2-.4-3.6-2.7-8.4 2.7-10.4v124.7c.1 6.5.4 12.8-6.1 16.7q-1.4.1-3.6-.3-1.6-1-3-1.4l-8.4-3.1-.4-.3-21.5-11.3c-4.4-2.2-9-4-13.8-6.6-1.3-1-2-1.3-3-1.7"/><path fill="#38b2ac" d="M454.4 68.4c-.2.8-1 1.7-.9 1.7 3.7 3.4 2.3 8 2.4 11.9 0 8.1-.8 16.2-.8 24.3 0 10.8 1 21.6.8 32.4-.4 10.2-1.8 20.4-3 30.5-.7 6.7-2.8 13.3-2.6 20 .1 6.3-2.2 11.4-4.6 16.8-.4 1-2.2 1.4-3.5 2l-4.4 1.6-1.1.7q-.1.1-.6-.4-.9-1.2-1-2-1.3-1.1-3.7-1.8-5.4-2-10.4-4.5l1-9.2c.8-6.4.5-12.8 7.1-17.4 6.2-4.3 8.8-11.5 8.9-19.2q.1-30.4-.1-60.8c0-3.7-.3-8-2.2-11-3.6-5.5-2.1-10 .2-15 1-2.4 1.4-5 2-7.5q8.2 3 16.5 6.9"/><path fill="#4a5580" d="m411.2 587.3-12.5-6.7q4 .8 8 2.4 13.6 5.8 26.4 12.5c4.9 2.7 5 .7 5-3.1l.2-155q1-.5 1.5-.4.3-.1.7.5l-.6 19.3v127.6q.1 7.8-.4 15.4a35 35 0 0 1-5.6-1.4q-11.5-5.8-22.7-11"/><path fill="#71c5c6" d="M398.3 380c6.2-4 5.9-10.3 5.9-16.8q-.2-62-.1-125.2c0-9.3 0-17.6.3-26l4.4-3.2.2.2c-1 4.3-2.9 8.5-3 12.7q-.2 45.2 0 90.3l.7 56.4c0 6.7-1.8 9.2-8.4 11.6"/><path fill="#3dbaac" d="M403.2 544.9c.1-3.6 1-7.2 1-10.7v-100q-.6-1.7-1-2.3-2.5-4.1-5.6-8.4L375 412.9l-11.6-5.1q-16.3-7.6-32.2-15.6a49 49 0 0 1 7.6 2.6q29.5 13 58.9 26.3c6 2.7 8.2 8.3 8.2 14.3q.2 52 0 103.9c0 1.9-1.5 3.7-2.7 5.6m36.9-108.3q-1 .5-1.7.4-.4-51.3-.4-102.7V271c0-3.7.9-6.8 4.5-8.7q.4 1 0 1.6-.5 3.4-.8 7.4v.5c-.5 1.3-1.6 2.7-1.6 4v153q.2 3.7 0 7.8m67-151q-6.6-3.2-13.3-7 3 .4 6.3 1.6 25.2 11.5 50.5 22.8l68.2 30.4q4.5 2.1 9.2 4.7-11.7-4.2-23.6-9.1l-25.1-11.5-49.1-21.8zm190-18.7q4.4-3.1 9.3-5.8l70.4-34.4 2.8-1.6c-3.9 2.8-8 6.2-12.5 8.5q-31.9 15.8-64 31.4-2.5 1.1-6 1.9"/><path fill="#71c5c6" d="m515 244 27.9 13q1.5.9 3.1 2.5-14.7-6-29.5-12.4l-49-21.6q-.7-.5-1.6-1.6-.2-.5.4-.7a88 88 0 0 1 8.5 3.2z"/><path fill="#3dbaac" d="M272 364.5q-4.9-1-10.2-2.7-11.2-6-22-11.5-13.8-6.8-28-12.7c-3-1.2-6.7-.5-10.4-.7 2-4.3 5.7-3.5 9-2l44.7 21.5q8.4 3.9 16.9 8.1"/><path fill="#42b9b8" d="M579.8 274.5q9.6 3.3 19.4 7.3c9 4 17.8 8.7 27 12.5 3 1.1 6.8.2 11 0q2.5-.8 4.2-1c-4.3 4.5-9.8 4.7-14.7 2.7q-23.4-10.2-47-21.5"/><path fill="#299eb3" d="m641.7 293.3-4.3.7-6-1c-1-8.2 5-9.3 11-10.4q0 3.8.3 8.4l.3 1.7z"/><path fill="#4a5580" d="M365.9 564.8q-17.7-7.4-35.4-15.4l-3.6-1.3q-1-.7-1.3-1.5 5.2 1.4 10.3 3.5a817 817 0 0 1 30 14.7"/><path fill="#3dbaac" d="M297.4 378q-4.4-2.3-8.3-4.8 9.6 3 19.1 7.1 10.4 5 20.8 10.8-10-4-20.4-8.5z"/><path fill="#42b9b8" d="M684.7 270.2q1.1-.1 2 .4-9.8 6-20.1 11.2-9.7 4.8-20.2 9.1 6.5-4 13.7-8z"/><path fill="#3dbaac" d="M667.7 321.6a129 129 0 0 1-13 7.7q-9.9 4.9-20.5 9.3 3.6-2.9 7.7-5.1a606 606 0 0 1 25.8-11.9"/><path fill="#71c5c6" d="M356.8 531.6q2.9.3 5.8 1.5a1119 1119 0 0 1 30.3 14.8q-6.1-2-12.3-4.8-11.9-5.4-23.8-11.5"/><path fill="#4a5580" d="M398 579.8q-7.6-2.8-15.7-6.3-8-3.7-15.6-7.8 5.7 1.5 11.6 4 9.8 4.6 19.6 10m-74-34.2q-15-6.4-30.3-13.8 1.4-.4 2.7 0 13.8 6.7 27.7 13.8"/><path fill="#71c5c6" d="M436.9 210.6q0-.5.8-.6 13.7 6.1 27 13-13.7-5.7-27.8-12.4m-2-2.5 1 1.7c-2.6-.6-5.4-1.2-7.8-2.6-6.6-4-12.6-2.7-18.7 1.8q-.6 0-.5-.5 0-.9.5-1.6L421 202l10.4 4.3q.7.4.7 1 .3.5 1.2.6z"/><path fill="#3dbaac" d="M480 272.1a611 611 0 0 1-25.2-10.6q-1-1.2-1.3-2l9 3.5q8.7 4.3 17.5 9.1"/><path fill="#42b9b8" d="M550.8 261.5q3.7.7 7.6 2.2a379 379 0 0 1 20.5 10q-13.9-5.6-28.1-12.2"/><path fill="#71c5c6" d="M319.8 514.6q6.7 1.8 13.4 4.7 7 3.2 13.7 7.5-13.5-5.6-27-12.2M287.6 499a330 330 0 0 1 18.3 9q-9.3-3.7-19.2-8.4 0-.5.9-.6"/><path fill="#35b3b4" d="m453.2 259.5 1.2 2q-5.2 1.4-11.4 2.4-.3-.6-.2-1.6 0-.5.4-.4l2.6-.1 2.5-1.8 3.7-.8z"/><path fill="#3dbaac" d="M492 277.6q-4.8-1.7-9.9-4.3a72 72 0 0 1 9.9 4.3"/><path fill="#4bc4a8" d="M383 375.4q4 1 8.3 3 .3.5.2.6-4.2-1.4-8.4-3.6"/><path fill="#71c5c6" d="M314.6 511q.5.6.5 1.5-3.3-1.2-7-3.3 3 .6 6.5 1.7"/><path fill="#4a5580" d="M292 530.5q-2.7-.8-5.8-2.5 2.8.8 5.8 2.5"/><path fill="#71c5c6" d="M349.2 528.1q2.7.7 5.8 2.5a25 25 0 0 1-5.8-2.5"/><path fill="#3dbaac" d="M287 371.7q-2.5-.6-5.2-2.1 2.5.5 5.1 2m158.5-109.9-2.2.1q1-1.4 2.8-2.2 0 1.4-.6 2.1m6.4-2.8q-1.3.7-3.5.9-.5-.5-.4-.6a16 16 0 0 1 4-.3"/><path fill="#299cad" d="M677 320a14 14 0 0 1-3.5 1.7q0-1.1.5-2h.7z"/><path fill="#42b9b8" d="M447.7 259.3q.3.1.3.5-.8 1.1-2.2 2-.1-.9.5-2 .6-.5 1.4-.5"/><path fill="#3dbaac" d="M698.9 306.8q-.6 1.2-1.8 1.6.6-1 1.8-1.6"/><path fill="#42b9b8" d="M673.6 319.7q.1.9-.5 2 0 .4-.5.3l-2.6.2v-.4a19 19 0 0 1 3.6-2"/><path fill="#3dbaac" d="M713.8 300q-1.2 1.1-3.4 2a12 12 0 0 1 3.4-2"/><path fill="#3bb4b8" d="M631.7 339q.3 1-.7 1.9l-1 .1-.9-1.7q1-.4 2.6-.2"/><path fill="#3dbaac" d="M683.2 314.3q-.5 1-2 1.6.5-.9 2-1.6"/><path fill="#42b9b8" d="M677 319.7q-.8.3-2.1 0 .3-.8 1.8-1.6.4.6.3 1.6"/><path fill="#3dbaac" d="M687.2 312.3q-.4 1-1.9 1.7.5-1 2-1.7m4-2q-.5 1-2 1.8.5-1 2-1.7m31.9-15q-.5.8-1.9 1.6.5-1 1.9-1.7"/><path fill="#42b9b8" d="M727.6 293.9q-.3 1-1.4 1.4.4-.9 1.4-1.4m-84.3-1.2q-.4-.6-.3-1.4.6-.4 2-.2-.4.9-1.7 1.6"/><path fill="#3dbaac" d="M689.8 270.7q.5-1 1.9-1.7-.5 1-2 1.7"/><path fill="#71c5c6" d="M397.2 548.5q.4-.9 1.7-1.3-.4.8-1.7 1.3m-5.4-169.2q-.3-.5-.2-.8 1.2.1 2.4 1-.9.3-2.2-.2"/><path fill="#3dbaac" d="M280 368.5q-1 0-2.2-1 1 0 2.2 1m-4-2q-1 0-2.2-1a4 4 0 0 1 2.2 1"/><path fill="#71c5c6" d="M285 498.3q.2-.1.9.4-.3.2-.9-.4m33 15q.2-.1 1 .4-.4.3-1-.4"/><path fill="#42b9b8" d="M549 260.2q.1-.1.9.4-.3.1-1-.4"/><path fill="#29345f" d="M474.4 618q-2.5-1.6-4-3.7c1-1.5 2.1-2.7 2.2-4 0-3.2-.6-6.5-.4-9.8q.7-12.3 1.8-24.7l.8-11.8c0-7.5.7-15-.3-22.4-1-7-3.4-13.7-1.7-21 .5-2 0-4.7-1-6.7a76 76 0 0 1-5.9-27c-.3-6-.3-12.3-7.5-15.3-2.6-1.1-3.4-3.8-1.2-6.2 1.7-2 3.5-4 5.7-5.2 3.2-2 8.1-1.2 8.9-6.6 0-.3 2-.4 3.5-.6a4 4 0 0 1 1.8.2l1 1.3a7 7 0 0 0 2.7 1.3q1.4.1 2.3.8 1.1.9 2.7 1.2 4.2 2 7.4 4c-3.1 1.6-1.4 2.5.1 3.4 3 1.8 3 3.7 1 6.5a12 12 0 0 0-2.2 6.3q.1 8.2 1 16.6.6 9.7 2 19.3c.4 2.7 2.7 5.2 2.8 7.8.3 10.6 0 21.1 0 31.7q0 3.9.3 7.8c.5 4.9 1.5 9.8 1.7 14.7.3 7.4-.5 14.8.2 22.2.9 8.3.3 17.2 7.2 24 3.3 3.3 1.6 7-3.3 9l-9.6-3.4-2.4-1.7q-.6.1-1.7-.4L486 624l-.8-.3-2.2-1.7q-4-2-8.6-4"/><path fill="#252f58" d="M504 631.4c5-2.2 6.6-6 3.3-9.3-7-6.8-6.3-15.7-7.2-24-.7-7.4.1-14.8-.2-22.2-.2-5-1.2-9.8-1.7-14.7l-.3-7.8c0-10.6.3-21.1 0-31.7-.1-2.6-2.4-5-2.8-7.8q-1.4-9.6-2-19.3-.9-8.2-1-16.6c0-2.1 1-4.5 2.2-6.3 2-2.8 2-4.7-1-6.5-1.5-1-3.2-1.8.1-3.4q1.3-.1 1.6.5 1 .5 2.4.7 1.5.4 2.6 1.2 1.3 1 2.5 1.6.5-.1 1.3.5l2.7 1.5a106 106 0 0 1 12 5q3.5 1.5 7.4 4c2 4.4.4 7-2.4 9.2-8.8 7-9.4 17-9.4 27 0 5 1.2 10.2 2 15.2q2.3 17 5 34c.4 2.4 2.8 4.6 2.7 6.8q-.6 8.3-2.2 16.5-2.1 11.6 1.6 22.5a49 49 0 0 1 2.2 31H520q-8-3.5-16-7.6"/><path fill="#222b53" d="M520.2 639.3q2.4-.4 5.2-.3c3-11 1.5-21-2.2-31q-3.8-10.9-1.6-22.5 1.7-8.2 2.2-16.5c0-2.2-2.3-4.4-2.7-6.7q-2.8-17-5-34.1c-.8-5-2-10.1-2-15.2 0-10 .6-20 9.4-27 2.8-2.2 4.5-4.8 2.6-9q8.2 2.8 16.6 6.1a47 47 0 0 1 8.2 4.4l-4 1.7c-1 .5-2.3 1.8-3 1.5-3-1.2-4.2.8-4.5 3q-1 5-.9 10.2c.2 4.9 1.1 9.8 1.3 14.7.3 6.1.1 12.2.4 18.3.1 2.5 1 5 1.5 7.6l.7-.2 1.8-7.9 1.4.3v13c-1.8 1-4.3 1.8-4.3 2.5q.5 5.4 2.2 10.7c.4 1.5 2.2 2.6 3 4.1 3 6 .2 12-.7 18-.1.5-.7 1.4-1.2 1.4-4.5.5-3.7 4-3.6 6.8.3 8 1 16 .9 24-.2 8.4-.8 16.6 3 24.6 2.6 5.8 1.7 6.4-4.9 7.2q-9.8-4.6-19.8-9.7"/><path fill="#20284e" d="M540.2 649.3c6.4-1.1 7.3-1.7 4.6-7.5-3.7-8-3-16.2-3-24.5.3-8-.5-16-.8-24.1 0-2.8-1-6.3 3.6-6.8.5 0 1-.9 1.2-1.5 1-5.9 3.8-11.8.7-17.9-.8-1.5-2.6-2.6-3-4.1q-1.6-5.2-2.2-10.7c0-.7 2.5-1.6 4.3-2.6v-12.9l-1.4-.3-1.8 8h-.7c-.5-2.4-1.4-5-1.5-7.5-.3-6 0-12.2-.4-18.3-.2-4.9-1-9.8-1.3-14.7q-.1-5.2.9-10.3c.3-2 1.4-4.1 4.5-2.9.7.3 2-1 3-1.5l4.2-1.4a34 34 0 0 1 9.4 4q.5-.1 1.3.5 1.6 1.1 2.7 1.5 1 .3 2.3 1.4 3.2 2.8 6 4.8.2 4 .1 8.6c-2.3 1.6-5.6 2.3-6.4 4a35 35 0 0 0-4.3 14.2c-.1 21.9.5 43.9.8 65.8v.5c4.8 7.5-.4 14.5-1 21.7q-1.2 18-2 36.2c-.2 5.2-1.5 6.2-6.3 4.3q-6.7-2.7-13.5-6"/><path fill="#1e274c" d="M491.7 673c-.2-1.8-.2-3.3-.2-5.4 3.3 3.3 3.2 4.1.2 5.4m-5.6-48.6q1.8 0 3.8 1.2-1.8 0-3.8-1.2"/><path fill="#4a5580" d="M573.3 585.3q.6 1 .5 2.7a5 5 0 0 1-.5-2.7m0 8.9q.6.6.5 1.8-.5-.7-.5-1.8"/><path fill="#1e274c" d="M483 622.3q1 .2 2 1.4-1-.2-2-1.4m9 4q1 .2 2 1.4-1-.2-2-1.4"/><path fill="#20284e" d="M573.4 514.2v.9l.2.7-.5.2a3 3 0 0 1-.5-1.8z"/><path fill="#4a5580" d="M573.5 592.4q.4 0 .3.4-.5-.1-.3-.4m0-2q.4.1.3.4-.4-.1-.3-.4"/><path fill="#29345f" d="M343.4 684.4q-1 .3-2.1-.2.5-1.1 1.4-2 .5.8.7 2.2"/><path fill="#2d3a66" d="M475 453c-1.1.2-3.2.3-3.2.6-.8 5.4-5.7 4.7-9 6.6q-3.2 2.1-5.6 5.2c-2.2 2.4-1.4 5 1.2 6.2 7.2 3 7.2 9.3 7.5 15.4.6 9.3 2 18.3 6 26.9.9 2 1.4 4.7 1 6.7-1.8 7.3.6 14 1.6 21 1 7.3.4 15 .3 22.4q-.2 6-.8 11.8l-1.8 24.7c-.2 3.3.5 6.6.4 9.9 0 1.2-1.2 2.4-2.2 3.6q-11-4.5-21.4-9-3.1-1.6-7-3.9-1.5-.8-2-1.3v-143q.1-9.4.7-19.3 4.8 1.4 10 3.8 1.6.7 2.3.8l1.4.5 2.6 1.5 1.4.4 2.9 1.7q3.3 1 6.4 2.3 1.1.9 2.6 1.5 1.4.5 2.7 1.3z"/><path fill="#222b53" d="m439.5 599.8 2.2 1.2c-2.6 13-1.8 26-1 39 .6 9.8-.2 19.6-.3 29.4l-.4 5c-.7 10.5-1.6 21-1.8 31.6-.2 8 .6 16.2 1 24.4q-1.3.5-3.4 2l-31.5-14.6-1-1.3c-2.7-1.7-5-3.1-7.8-4.5a165 165 0 0 1-14.3-7.3 13 13 0 0 0-3.5-1.6q-.1.1-.6-.4-1.5-1-2.7-1.4-2-.5-4.3-2c1.2-1.2 3-2.4 3.5-2 5.2 3.5 10 .4 14-1.5 2.9-1.4 5.4-5.8 6.1-9.2.8-3.6 1.9-6 4.9-8 7.1-5 14.2-10 18.7-18 1-1.6 3.5-2.2 4.9-3.7q2.3-2.3 3.5-5.2c.6-1.7-.1-3.9.3-5.7a43 43 0 0 0 1.2-24.8c-2-6.6 1.4-12.2 7.3-16q1.5-1 2.6-2.3l-3-4.2z"/><path fill="#3cb9b4" d="m409.1 207-.3 1.4a17 17 0 0 1-4.6 3.4c-2 .2-4.2 0-4.8 1-5 7.8-9.6 15.7-17.7 20.7-3.5 2.2-7.5 6.5-10.6 6-6-1-9.9 1.4-14.2 4.1-3.7 2.3-7.3 4.8-11.2 6.4-7 2.8-11.5 7.8-14.4 14.5-2 4.8-5.3 8.2-10.5 8.4s-10.4-.7-15.5-1c-6.8-.4-13 1-17.5 5 0 2.5.7 4.8-.1 5.6-1 1-3.2.6-4.9 1q-1.9.1-3.5.8c-3 1.9-5 4-5.8 8-1.4 7.2-9 8.9-13.7 13.4-2.7 2.6-5.7 6-10.2 2.6l-1.6 1.9-32.9-15.5-106.7-50q-1.8-.7-3.4-2.2-.9-2.8-2.4-4.3c-2.7-2.5-4.9-5-2.3-9 .7-1.1.8-2.7 1.2-4.1.9-3.8-1.8-9.1-5.5-9.9q-10.5-2-20.8-3c-3.2-.4-4.6-1.2-4.3-4.4q4.7-2.2 9.8-4c-.5 1.9-1.3 3.3-2.5 5.3l4.2.9c8.9 2 17.8 1.9 27 1.2 12.5-.9 25-.2 37.9 0q2.4.8 4.2.8l64.3-2 55.4-2q20.1-.7 40.2-1c22.7-.1 45.3.3 68-.1 9.5-.2 19-1.9 28.6-2.6z"/><path fill="#41c0b2" d="M408 204c-9.5 1-19 2.7-28.6 2.9-22.7.4-45.3 0-68 .1q-20.1.3-40.2 1l-55.4 2-64.3 2q-2 0-4-1c17.6-1.4 35.2-2 52.7-3.1 4-.2 8.8-.6 11.4-3 4-3.4 7.7-6 12.7-7 4.7-1 9.4-1.7 13.8-3.3 2-.7 3.5-3.2 4.8-5l5.8-10 1.6.6 1.3 4.6c1.3-.5 2.6-1.7 3.3-1.4 7 3.2 9.4-2.5 12.9-6.5 1.5-1.8 3.4-4 5.5-4.7 11.5-3.5 19.3-12 27.3-20 4.5-4.4 9.2-7.2 15.3-8.3q3.4-.7 6.2-2.6c6.8-4.5 13-10.4 20.3-13.6 8.3-3.6 13.2-9.7 18.6-16.1 4.6-5.5 6.1-12.8 12.5-17.4 5.7-4 10.3-8.6 18-7.3q4.6.9 5.6-4.1 1.2-5.5 3-11c.3-.9 1.2-2.4 1.8-2.4 1 0 2.4.9 3 1.8q2.2 3.2 4 6.6l8.6-1.2q.9-3.3 1.4-6.4c1-6.7-1.4-9-8.3-8.6-.8 0-1.7-1.2-2.3-2l3.1-2.4h.8q1.7-.5 2.8-.3 1.1-.3 2-1l9-.5q1 .8 1 2c-5.4.6-5 4.4-5 7.6v42.7c0 16.5.5 33-.2 49.4-.4 8.3-2.9 16.4-4.6 24.6-.9 3.9-3.2 7.7-3 11.4.3 5.5-1.4 8.8-6.2 10.9"/><path fill="#47c4b1" d="M408 59.8c.9.6 1.8 1.8 2.6 1.8 6.9-.4 9.3 2 8.3 8.6l-1.4 6.4-8.6 1.2q-1.8-3.4-4-6.6a4 4 0 0 0-3-1.8c-.6 0-1.5 1.5-1.8 2.5q-1.8 5.4-3 10.9-1.1 5-5.7 4.1c-7.6-1.3-12.2 3.4-17.9 7.3-6.4 4.6-7.9 11.9-12.5 17.4-5.4 6.4-10.3 12.5-18.6 16.1-7.3 3.2-13.5 9-20.3 13.6q-2.8 1.9-6.2 2.6c-6.1 1-10.8 3.9-15.3 8.4-8 8-15.8 16.4-27.3 20-2.1.6-4 2.8-5.5 4.6-3.5 4-5.8 9.7-13 6.5-.6-.3-2 .9-3.2 1.4l-1.3-4.6-1.6-.7q-2.8 5.2-5.8 10c-1.3 2-2.8 4.4-4.8 5.1-4.4 1.6-9.1 2.4-13.8 3.3-5 1-8.8 3.6-12.7 7-2.6 2.4-7.5 2.8-11.4 3l-52.9 2.8c-12.8.3-25.4-.4-38 .5-9 .7-18 .8-27-1.2l-4-.9 2.8-5.3q5.5-3.2 11.2-5.7l93.7-41.6 98.7-43 22-10 62.8-27.4c11.3-5 22.5-10.1 34.5-15.3z"/><path fill="#35b3b4" d="M248.3 310.4c.2-.9 1.3-2.2 1.3-2.1 4.5 3.4 7.5 0 10.2-2.6 4.6-4.5 12.3-6.2 13.7-13.4.8-4 2.8-6.1 5.8-8 1-.6 2.3-.6 3.5-.9 1.7-.3 3.9 0 4.9-1 .8-.7.1-3 .1-5.5 4.5-4 10.7-5.4 17.5-5 5.1.3 10.3 1.2 15.5 1s8.5-3.6 10.5-8.4a25 25 0 0 1 14.4-14.5c4-1.6 7.5-4 11.2-6.4 4.3-2.7 8.2-5 14.2-4.1 3.1.5 7-3.8 10.6-6 8.1-5 12.7-13 17.7-20.7.6-1 2.8-.8 4.5-1q.2 12.8.2 25.7c-5.4 3-3 7.8-2.7 11.4.3 3 0 4.8-1.8 7.2-6.3 8-11 16.3-7.9 27.3 2.2 7.7-2 14.3-6 20.4-3.3 4.8-5 9.3-1.5 14.6 2.5 3.8 2 7.1-.7 11-1.7 2.3-1.7 5.8-2.5 8.8-1.5 5.2-3.7 10-9.8 10.4-2.4.2-4.8-1.2-7.3-1.8-2.4-.6-5-1.8-7.4-1.4-3.6.6-6.5 1-9.6-1.8-5.1-4.6-10.5-7.7-17.8-3.1-1.8 1.2-5.6-.8-8.5-1.1-2.1-.2-4.8-1.9-5.6 2.3a4348 4348 0 0 1-66.7-31.3M70.6 207.9c0 3.1 1.4 4 4.6 4.2q10.5 1.1 20.8 3.1c3.7.8 6.4 6 5.5 9.9-.4 1.4-.5 3-1.2 4.2-2.6 4-.4 6.4 2.3 8.9q1.6 1.6 2.2 4a977 977 0 0 1-37-15.9c-4-1.8-5.3-5.7-5-10 .3-4.8 3.5-7 7.8-8.4"/><path fill="#3dbaac" d="M408.3 59.6q-2 .7-4 1a47 47 0 0 1 6.7-3.5q-.8 1.2-2.7 2.5"/><path fill="#47c4b1" d="M416.8 55.7q-.6 1-1.7 1 .1-1 .4-1.5z"/><path fill="#3dbaac" d="M415.2 55.2q.2.5-.3 1.2-1 .5-2.5.7.8-1 2.8-2"/><path fill="#35b3b4" d="M344.5 355.6q1 0 2.4 1.1-1 0-2.4-1.1"/><path fill="#2396af" d="M707 425.5c-.3-1.3-.6-2.8 0-3.9q3.1-6.3 6.4-12.4c1.5-2.9 2.6-6.1 4.6-8.6 3.8-4.8 1.3-9-1-12.9q-4.6-7.3-2-15.2c.4-1 1.3-1.7 1.8-2.6q1.3-2.2 2.2-4.5c.7-2.2.7-4.6 1.7-6.6 3.3-7 7.4-13.5 10-20.7 4-10.4 7.7-21 7.4-32.4 0-2.6 1.4-5.3 2-8l1.9-9.5a217 217 0 0 1 21.6-10.3c2.9 3.4 4.7 1.8 6.6-.3a9 9 0 0 1 6.5 9q.4 7.7.4 15.4-.2 37.7 0 75.4c0 9-3.2 14.6-11.8 18.6-13 6-25.4 13.5-38.2 20.7q-9.8 4.6-20.1 8.8"/><path fill="#299cad" d="M769.9 277.3c-1.6 2.4-3.4 4-6 .5q2.6-.7 6-.5"/><path fill="#299eb3" d="M681.8 167.4c.4 3.5.5 6.5-4.1 7.1-1 .1-1.7 2.6-2.5 4-1.4 2.7-2.8 3.6-4.9.3-2.5-3.9-3.8-3.8-6.4-.1a24 24 0 0 0-3 5.6c-1.1 3.2-2.5 5.3-6.3 6.2-4.5 1-6.3 7-4.5 11.3q.9 2.9.4 6.2c-.8 7.5-2 15-2.4 22.6q-.6 8.9 0 17.7c.3 5.5-2.3 9.5-5.7 13.7l-3.8-2.9c-4.3 3.4-4.3 3.4-8.2-3-.4-25-.2-50-.5-75-.1-12-1.2-23.8-1.5-36.2q14.2 5 27.6 10.3 2.3 1.2 5 2.2zm22.7 11c-4.2 2-8.5 2.6-12.3-1.6q2.6-.7 4.8-1.7 3.7 1 7.5 3.2m-8-3.8q-1.1 0-2.4-1.2 1 0 2.4 1.2m-4-2q-1 0-2.4-1.1 1 0 2.4 1"/><path fill="#2ba3ac" d="M515 243.7q-20.1-8.3-40.2-17.3-3.9-1.7-8.4-3.4c-.3-.4-.2-1-.1-1 7.8-1 8.6-8 11.3-13.2 2-3.7 2.4-4 6.8-2.1q1.7-7.7 3.6-15.2.4-2 1.6-3.5c3-3.4 3.6-7.6 1.6-11.2-4.4-8-3-16.4-3.2-24.8q-.2-10.8.1-21.7c.2-2.5 1.5-5.1 2.7-7.5q3.8-8.1 8.2-15.9c.8-1.5 2.4-3.4 4-3.7 8.2-2 9.3-4.2 4.4-10.4q-.1-.2.7-1.3l.9-.5.7.4q.4 0 .3.2v.5h.5l.3.1 3.7 1 19.7 9.4 12.3 5.6c-.7 2.5-2 4.5-2.3 6.6-.7 5.2-.7 10.6-1.2 15.8-.4 4-1.7 8.1-1.6 12.2 0 5 1.1 10 1.7 15l2 16.1c1.4 11-2 21.3-4.3 31.7-.3 1-2.1 2.2-3.2 2.3-4.8.1-5.8 3.4-6.6 7.2q-1.2 5.6-3.1 11.1-2.5 6.4-5.3 12.6c-1.1 2.8-2.5 5.2-6.2 3.4-.2 0-.8.8-1.4 1.5m42.1-113.4c3.4-3 5-6 2.6-10.4-.8-1.5-.5-3.5-.6-5.7q25.1 10.5 50.4 22c-1.9 1.2-3.9 2.5-6 2.7-6.7.6-14.2 6.2-16.6 12.3-.7 1.9-2.4 4.2-4 4.7-8.6 2.4-8.5 9.2-9 16-.5 7.9-1.4 15.8-2 22.8-3.8 0-7.3.8-10.2-.3-1.8-.7-3-4-3.6-6.4-.6-3-.1-6.2-.1-9.3l-1.4-.2-.6 3.3-2.2 16.6c-.1.9-1.5 2-2.5 2.3-.5.1-2.1-1.4-2.1-2.2q0-20.4.5-40.8c0-1.6 1.3-3.2 2.2-5.2l5.2 4.4c.5-9.5 5.2-17.6 0-26.6"/><path fill="#252f58" d="m434 598.4 3.1 4.5q-1.2 1.2-2.6 2.3c-6 3.8-9.3 9.4-7.3 16 2.7 8.7 1 16.6-1.2 24.8-.4 1.8.3 4-.3 5.7q-1.1 3-3.5 5.2c-1.4 1.5-4 2.1-4.9 3.8a57 57 0 0 1-18.7 17.9c-3 2-4.1 4.4-4.9 8-.7 3.4-3.2 7.8-6.2 9.2-4 1.9-8.7 5-13.9 1.5-.6-.4-2.3.8-3.7 1.7q-7.9-3.5-16-8c.6-1.4 1.1-3.4 2.1-3.7 4.4-1.3 9-2 13.4-3.4a11 11 0 0 0 5.4-3.3l20.5-28c1-1.3 3.6-1.6 4.4-3 2.7-4.8 5.7-9.7 7.1-15 2.4-8.8 2.3-18.1 6.5-26.7 2-4 1.9-9 2.5-13.6.1-.7-1.2-1.6-1.8-2.4q-1.6-1.8-2.8-4.2a354 354 0 0 1 22.7 10.7"/><path fill="#313e6c" d="M378 703.4q1.2 0 3 1.1-1.5 0-3-1.1m-3.4-1.8q1 0 2.3 1-1 0-2.3-1"/><path fill="#3dbaac" d="M408 204.4c4.8-2.5 6.5-5.8 6.2-11.3-.2-3.7 2.1-7.5 3-11.4 1.7-8.2 4.2-16.3 4.6-24.6.7-16.4.2-33 .2-49.4V65c0-3.2-.4-7 5.1-7.3 3.8 1 7 2.2 10.6 3.5-.4 2.8-.7 5.4-1.8 7.8-2.3 5-3.8 9.5-.2 15 2 3 2.2 7.3 2.2 11q.3 30.4 0 60.8c0 7.7-2.6 14.9-8.8 19.2-6.6 4.6-6.3 11-7 17.4l-1 9.2q-5.7 2.9-11.7 5.3-1-.8-1.4-2.6"/><path fill="#30aab6" d="M629.7 341h1q1 3.9 1.3 7.8v58.4c-.1 8.7-.9 17.4-.9 26.1q.1 11.7 1 23.3 0 3.1 1 6.5-16.6 9.6-34 19-5.6 3-11.1 6.6-6.2 2.6-13 4.8c-4.6-1.6-7.3-3.7-6.1-9.1 1-4.3-.3-7.7-5.9-7.5-1 0-2.1-1.3-3.5-2.1 1-1 1.3-1.5 1.7-1.6 6.4-1 9.4-5.3 7-11.5-3-8.1-1-15.9 1-23.7q.2-.8.8-1.2c6.6-2.8 3.5-8.5 3.8-13 0-1.5-1.9-3.2-3-4.7-.7-.9-1.9-1.4-2.4-2.4-4.5-8.3-11-15.7-11.7-25.9-.1-1.6-1.6-3.2-2.9-5.7q6.3-4 12.8-7.8c5-2.8 10.4-5 9.7-12.3 7.1 3.7 8.4 3 13.7-4.9a7 7 0 0 1 5-2.8q13.4-.6 24.6-7.6c3.6-2.2 6.5-5.7 10-8.6"/><path fill="#3dbaac" d="M656 155q-13.5-5-27.5-10.6a57 57 0 0 1-5.9-3.9l12 3.5 14 7q3.5 1.7 7.3 4"/><path fill="#1b244a" d="M573 499.6q-3-1.6-6-4.3 2.6 0 5.8.6.4 1.5.1 3.7"/><path fill="#3dbaac" d="M508.9 90.7q0 .5-.6.6-3.2-1.4-6-3.2.8-.7 2.3-1 2.3 1.5 4.3 3.6m5 2a6 6 0 0 1-3-.7l-.4-.6q1.5.4 3.4 1.4"/><path fill="#33acad" d="M510.3 91.4q.2.1.2.5c0 .4 0 .1-.2 0-.3 0-.3-.5-.3-.5z"/><path fill="#4a5580" d="M573.8 515.8q-.4-.1-.3-.5.5 0 .8.2z"/><path fill="#2ba3ac" d="M556.9 129.7c-1.8 2.6-3.7 4.8-6.2 7.9-.7-4.3-2.3-8.2.9-11 2.3-2 4 .5 5.3 3"/><path fill="#3bb4b8" d="m495 462-1.2-.3-8.2-4.2-2.6-1.3-2.3-.7q-.6-.7-.7-1.8c-.8-1.5-1.3-3.3-2.4-3.8q-8.1-3.1-16.6-5.9-1.4-2.5-3.3-4.8c-2.9-3.5-2.4-7 1.5-9.4q10.9-6.7 21.6-13.9c1.3-.9 2-3.3 2-5 0-4.6 1.5-7.8 5.8-10 3.8-2.1 3.3-13.2-.2-16.3-2-1.7-4-4-4.7-6.4-3.5-12.5-3-25.3-2.3-38 .2-4.7-.2-9.4-.2-14 0-2.2-.4-4.7.5-6.4 4.3-7.2 3.2-15 3.3-22.8 0-9 5.2-12.4 14-9 2.8 1 6 2.7 8-1.9q11.7 4.5 23.2 9.6l48.7 21.8c-1 3.8-3 5.5-7 3.7-1-.4-2.7-.1-3.8.5-3.2 1.9-7 3.5-9.3 6.3-4.4 5.2-10.5 5.5-16.3 7-1.1.4-2.7 1.3-3 2.2-1.4 5.4-6.3 5-9.6 4.3-5-.9-6 2-5.8 5 .3 5.8 1.4 11.5 2.4 17.1.1 1 1.3 1.8 2 2.7q4.5 4.4 8.4 9.2c6.5 8.2 5.6 12.6-3.6 17.8l-20 11c-5.3 3-5.4 4-.4 7.3q1.4.8 2.1 2 2.4 5.5 7.9 3.4 2 3.6 4 6.5c.8 1 2.3 1.6 3.6 2.1q2.1.9 4.3 1.6c-1 2.2-2 6.3-3 6.3-5-.2-5.9 3.3-7.5 6.5q-.7 1-2.5 2.2l-2.6-3.7q-.6 0-.9.3c-1.5 3.2-4.1 4-7.6 4.4-5.4.7-11.3.8-14.5 6.8-.7 1.5-2.6 2.4-5 4.3q5 3.3 9 6.3 1.2 1 1.3 2.6l-1.5.7-2.7-1.2z"/><path fill="#29345f" d="M500 464.2q.4-.6 1.2-.8.7.8 1.2 2.1-1-.2-2.4-1.3m6.4 3.3q-1 0-2.3-1.1 1 0 2.3 1.1m12 5q-1 0-2.3-1 1 0 2.3 1"/><path fill="#222b53" d="M564.4 493.5q-1 0-2.3-1.1 1 0 2.3 1.1m-4-2q-1 0-2.3-1 1 0 2.3 1"/><path fill="#35b3b4" d="M441.9 271.7c.7 1 1.9 1.9 2 3L445 290c.6 6.9 1.8 13.7 2 20.6q.3 9-.9 18.1a90 90 0 0 0 .4 31.1c1.3 6 .6 12.6.2 18.9 0 1.5-2.2 2.8-3.4 4.2l-1.4-.5zm.1 119.6.3-5c3.4 3.5 3.7 12.6-.3 16.2z"/><path fill="#3bb4b8" d="m461 446-2.3-1.5q.6-.5 1.9-.2.5 1 .4 1.7m-4-2.3q-1 0-2.4-1.2 1 0 2.3 1.2m-4-1.9q-.7.2-1.8-.4.8-.2 1.9.4"/><path fill="#299cad" d="M670.1 322.5q1-.5 2.5-.5a6 6 0 0 1-2.5.5"/><path fill="#299eb3" d="M641.2 273.9q.9-.8 1.9-1l.3 1.6q-1 0-2.2-.6"/><path fill="#44bfac" d="M403 432q.7.6 1 1.7-.7-.5-1-1.6"/><path fill="#33acad" d="M435.2 207.8q-.8.3-2 0-1-.8-1.2-.8l-.2-.7q1.9.5 3.4 1.5"/><path fill="#38b2ac" d="M432 207.2q.4-.2.9.5-.4.2-.8-.5"/><path fill="#42b9b8" d="M461.3 446.2q-.4-.9-.3-1.9 8.5 2.4 16.6 5.6c1.1.5 1.6 2.3 2 3.8q-1 .5-1.6.5l-1-1.3q-2.2-1.3-4.1-1.8l-2.7-1.4q-1.7-1.1-2.7-1.5z"/><path fill="#3bb4b8" d="M473 451.3q1.8.3 4 1.3-.6.5-1.7.4a9 9 0 0 1-2.3-1.7"/><path fill="#2d3a66" d="M478 454.5q.6-.5 1.6-.4.6.6.8 1.4-1 0-2.3-1m5 2q.9 0 2.2 1-1 0-2.2-1"/><path fill="#29345f" d="M495 462.3q.8-.2 1.9.4-.8.2-1.9-.4"/><path fill="#3bb4b8" d="M467.7 448.5q1 0 2.2 1-1 0-2.2-1"/><path fill="#3dbaac" d="M510.2 92h-.1v-.4z"/></svg>